<?xml version="1.0" standalone="no"?>
<!DOCTYPE svg PUBLIC "-//W3C//DTD SVG 20010904//EN"
 "http://www.w3.org/TR/2001/REC-SVG-20010904/DTD/svg10.dtd">
<svg version="1.0" xmlns="http://www.w3.org/2000/svg"
 width="340.000000pt" height="340.000000pt" viewBox="0 0 340.000000 340.000000"
 preserveAspectRatio="xMidYMid meet">

<g transform="translate(0.000000,340.000000) scale(0.100000,-0.100000)"
fill="#000000" stroke="none">
<path d="M610 3386 c-162 -36 -269 -95 -386 -211 -77 -76 -98 -105 -137 -185
-58 -118 -77 -189 -84 -310 -4 -76 -1 -113 16 -185 57 -237 200 -414 419 -517
116 -55 201 -71 342 -65 119 5 182 20 284 65 l59 26 39 -44 c53 -62 68 -119
68 -260 0 -141 -15 -198 -68 -260 l-39 -44 -61 27 c-116 53 -212 70 -347 64
-133 -6 -192 -20 -303 -75 -297 -147 -470 -505 -393 -812 52 -206 144 -347
298 -456 120 -86 293 -144 431 -144 74 0 216 34 304 73 192 85 343 261 409
477 45 145 25 377 -45 522 l-26 53 33 28 c17 16 57 40 87 55 51 25 64 27 190
27 127 0 138 -2 190 -28 30 -15 69 -39 87 -55 l32 -27 -29 -66 c-50 -111 -64
-182 -64 -309 0 -140 16 -210 80 -338 77 -154 230 -295 381 -352 172 -64 294
-74 438 -36 115 31 172 56 256 112 159 106 267 274 314 489 54 249 -62 542
-280 710 -216 166 -494 201 -749 95 l-77 -32 -23 21 c-77 72 -111 247 -81 411
8 44 50 122 81 151 l23 22 58 -26 c117 -51 169 -62 313 -62 154 0 234 19 350
82 202 110 324 273 381 507 26 110 24 203 -5 319 -38 148 -93 245 -201 353
-76 76 -105 97 -185 137 -227 111 -446 114 -665 7 -196 -95 -356 -298 -400
-508 -31 -146 -12 -331 48 -465 l31 -70 -44 -39 c-63 -54 -131 -73 -260 -73
-131 0 -200 20 -261 73 l-43 39 26 59 c44 100 59 165 65 280 7 140 -12 234
-72 359 -146 302 -495 480 -805 411z m268 -161 c62 -15 162 -60 215 -97 l28
-20 -43 -28 c-24 -15 -99 -84 -167 -153 -118 -119 -127 -126 -173 -132 -83
-12 -138 -78 -138 -166 0 -23 -5 -28 -37 -34 -21 -4 -49 -13 -63 -20 -60 -32
-146 -154 -177 -252 -9 -29 -19 -53 -22 -53 -8 0 -53 73 -85 137 -82 165 -71
377 29 549 69 119 220 230 365 268 72 19 189 19 268 1z m1963 -17 c98 -36 157
-74 229 -147 139 -142 197 -338 156 -532 -15 -68 -67 -184 -104 -229 l-20 -25
-10 25 c-5 14 -73 91 -149 170 -131 136 -141 148 -147 193 -5 35 -17 59 -40
84 -27 30 -40 36 -91 42 l-59 6 -18 62 c-15 50 -27 69 -65 102 -57 51 -135 96
-204 120 l-52 17 34 26 c50 39 150 86 216 103 86 22 240 14 324 -17z m-1573
-287 c48 -90 65 -170 60 -291 -4 -97 -32 -217 -57 -243 -4 -4 -46 22 -93 57
-48 36 -128 93 -180 126 -51 34 -96 69 -100 78 -15 39 -9 49 40 62 26 6 61 20
78 31 59 36 163 210 164 274 l1 30 29 -34 c16 -18 42 -59 58 -90z m948 74 c5
-13 72 -89 149 -167 173 -176 172 -170 38 -257 -50 -32 -131 -89 -179 -125
-48 -37 -91 -63 -95 -59 -3 5 -17 35 -29 68 -43 115 -38 308 11 423 23 54 78
142 88 142 4 0 11 -11 17 -25z m-1462 -495 c7 0 34 -34 61 -76 26 -42 83 -124
126 -182 43 -58 76 -108 74 -112 -3 -4 -37 -18 -77 -31 -61 -20 -94 -24 -193
-24 -138 0 -199 15 -298 75 -69 42 -79 57 -45 65 13 3 89 71 168 150 84 84
151 143 158 140 8 -3 19 -5 26 -5z m1952 -27 c3 -21 17 -56 29 -79 38 -66 210
-173 280 -174 l30 -1 -33 -28 c-47 -41 -146 -88 -222 -107 -88 -22 -251 -15
-335 15 -33 12 -63 25 -67 29 -5 5 21 47 56 94 36 48 93 128 127 180 66 100
73 108 106 108 18 0 23 -7 29 -37z m-1818 -1158 c35 -8 78 -23 97 -32 l34 -18
-45 -60 c-25 -33 -82 -114 -126 -180 -44 -66 -88 -123 -97 -127 -38 -16 -49
-8 -61 40 -6 26 -20 61 -31 78 -36 59 -210 163 -274 164 l-30 1 35 30 c43 37
140 86 206 104 66 18 215 18 292 0z m1964 -17 c66 -25 168 -84 168 -97 0 -4
-11 -11 -24 -17 -14 -5 -90 -72 -169 -149 -166 -162 -177 -166 -223 -87 -25
43 -141 210 -200 287 l-24 32 49 22 c81 34 120 40 241 37 93 -3 128 -8 182
-28z m319 -283 c100 -203 88 -413 -36 -595 -186 -274 -556 -340 -829 -147
l-28 20 28 15 c16 8 92 76 169 152 132 131 143 139 189 146 82 11 136 77 136
165 0 23 5 28 37 34 21 4 49 13 63 20 61 32 148 157 176 253 15 52 16 53 35
36 11 -10 38 -54 60 -99z m-2707 -95 c113 -112 136 -140 136 -164 0 -44 35
-109 70 -129 16 -10 52 -21 79 -24 47 -5 50 -7 56 -41 10 -54 29 -85 80 -130
51 -45 163 -106 213 -117 32 -7 33 -7 16 -26 -52 -58 -256 -129 -369 -129
-349 0 -628 325 -577 672 12 82 56 194 103 260 l22 31 18 -34 c10 -19 79 -95
153 -169z m852 -39 c23 -102 15 -242 -18 -333 -24 -65 -84 -168 -97 -168 -3 0
-13 14 -21 30 -8 16 -76 92 -151 168 -164 167 -164 168 -55 236 39 24 120 81
181 125 l110 81 17 -33 c9 -17 25 -65 34 -106z m956 36 c64 -47 142 -99 172
-117 36 -20 56 -38 56 -50 0 -10 2 -25 5 -32 4 -11 -9 -18 -52 -27 -48 -11
-65 -21 -103 -61 -56 -59 -130 -195 -130 -241 l-1 -34 -30 35 c-121 141 -155
398 -77 583 14 32 24 44 32 38 6 -5 64 -47 128 -94z"/>
</g>
</svg>
